<mxfile host="Electron" modified="2023-05-12T13:03:58.151Z" agent="Mozilla/5.0 (Windows NT 10.0; Win64; x64) AppleWebKit/537.36 (KHTML, like Gecko) draw.io/21.1.2 Chrome/106.0.5249.199 Electron/21.4.3 Safari/537.36" etag="Cvow2H1kTn93PCSAxzlz" version="21.1.2" type="device">
  <diagram id="C5RBs43oDa-KdzZeNtuy" name="Page-1">
    <mxGraphModel dx="3982" dy="1882" grid="1" gridSize="10" guides="1" tooltips="1" connect="1" arrows="1" fold="1" page="1" pageScale="1" pageWidth="827" pageHeight="1169" math="0" shadow="0">
      <root>
        <mxCell id="WIyWlLk6GJQsqaUBKTNV-0" />
        <mxCell id="WIyWlLk6GJQsqaUBKTNV-1" parent="WIyWlLk6GJQsqaUBKTNV-0" />
        <mxCell id="dK_nRXZSWBPesYPL9nkP-0" value="" style="group" parent="WIyWlLk6GJQsqaUBKTNV-1" connectable="0" vertex="1">
          <mxGeometry x="-220" y="-240" width="1320" height="1320" as="geometry" />
        </mxCell>
        <mxCell id="dK_nRXZSWBPesYPL9nkP-1" value="" style="whiteSpace=wrap;html=1;aspect=fixed;labelBorderColor=#00CCCC;labelBackgroundColor=#99FF99;" parent="dK_nRXZSWBPesYPL9nkP-0" vertex="1">
          <mxGeometry width="1320" height="1320" as="geometry" />
        </mxCell>
        <mxCell id="dK_nRXZSWBPesYPL9nkP-2" value="Logic" style="text;html=1;strokeColor=none;fillColor=none;align=center;verticalAlign=middle;whiteSpace=wrap;rounded=0;fontStyle=1;fontSize=85;" parent="dK_nRXZSWBPesYPL9nkP-0" vertex="1">
          <mxGeometry x="120" y="60" width="60" height="30" as="geometry" />
        </mxCell>
        <mxCell id="dK_nRXZSWBPesYPL9nkP-3" value="IUserDataTraffic" style="swimlane;fontStyle=0;align=center;verticalAlign=top;childLayout=stackLayout;horizontal=1;startSize=26;horizontalStack=0;resizeParent=1;resizeLast=0;collapsible=1;marginBottom=0;rounded=0;shadow=0;strokeWidth=1;" parent="dK_nRXZSWBPesYPL9nkP-0" vertex="1">
          <mxGeometry x="440" y="60" width="160" height="190" as="geometry">
            <mxRectangle x="230" y="140" width="160" height="26" as="alternateBounds" />
          </mxGeometry>
        </mxCell>
        <mxCell id="dK_nRXZSWBPesYPL9nkP-4" value="List&lt;User&gt; users" style="text;align=left;verticalAlign=top;spacingLeft=4;spacingRight=4;overflow=hidden;rotatable=0;points=[[0,0.5],[1,0.5]];portConstraint=eastwest;" parent="dK_nRXZSWBPesYPL9nkP-3" vertex="1">
          <mxGeometry y="26" width="160" height="26" as="geometry" />
        </mxCell>
        <mxCell id="dK_nRXZSWBPesYPL9nkP-5" value="" style="line;html=1;strokeWidth=1;align=left;verticalAlign=middle;spacingTop=-1;spacingLeft=3;spacingRight=3;rotatable=0;labelPosition=right;points=[];portConstraint=eastwest;" parent="dK_nRXZSWBPesYPL9nkP-3" vertex="1">
          <mxGeometry y="52" width="160" height="8" as="geometry" />
        </mxCell>
        <mxCell id="dK_nRXZSWBPesYPL9nkP-6" value="AddUser() : void" style="text;align=left;verticalAlign=top;spacingLeft=4;spacingRight=4;overflow=hidden;rotatable=0;points=[[0,0.5],[1,0.5]];portConstraint=eastwest;" parent="dK_nRXZSWBPesYPL9nkP-3" vertex="1">
          <mxGeometry y="60" width="160" height="26" as="geometry" />
        </mxCell>
        <mxCell id="dK_nRXZSWBPesYPL9nkP-7" value="GetAllUsers() : void" style="text;align=left;verticalAlign=top;spacingLeft=4;spacingRight=4;overflow=hidden;rotatable=0;points=[[0,0.5],[1,0.5]];portConstraint=eastwest;" parent="dK_nRXZSWBPesYPL9nkP-3" vertex="1">
          <mxGeometry y="86" width="160" height="26" as="geometry" />
        </mxCell>
        <mxCell id="dK_nRXZSWBPesYPL9nkP-8" value="SaveChanges() : void" style="text;align=left;verticalAlign=top;spacingLeft=4;spacingRight=4;overflow=hidden;rotatable=0;points=[[0,0.5],[1,0.5]];portConstraint=eastwest;" parent="dK_nRXZSWBPesYPL9nkP-3" vertex="1">
          <mxGeometry y="112" width="160" height="26" as="geometry" />
        </mxCell>
        <mxCell id="dK_nRXZSWBPesYPL9nkP-9" value="ISeasonTicketsDataTraffic" style="swimlane;fontStyle=0;align=center;verticalAlign=top;childLayout=stackLayout;horizontal=1;startSize=26;horizontalStack=0;resizeParent=1;resizeLast=0;collapsible=1;marginBottom=0;rounded=0;shadow=0;strokeWidth=1;" parent="dK_nRXZSWBPesYPL9nkP-0" vertex="1">
          <mxGeometry x="850" y="60" width="160" height="190" as="geometry">
            <mxRectangle x="230" y="140" width="160" height="26" as="alternateBounds" />
          </mxGeometry>
        </mxCell>
        <mxCell id="dK_nRXZSWBPesYPL9nkP-10" value="List&lt;Animals&gt; Animals" style="text;align=left;verticalAlign=top;spacingLeft=4;spacingRight=4;overflow=hidden;rotatable=0;points=[[0,0.5],[1,0.5]];portConstraint=eastwest;" parent="dK_nRXZSWBPesYPL9nkP-9" vertex="1">
          <mxGeometry y="26" width="160" height="26" as="geometry" />
        </mxCell>
        <mxCell id="dK_nRXZSWBPesYPL9nkP-11" value="" style="line;html=1;strokeWidth=1;align=left;verticalAlign=middle;spacingTop=-1;spacingLeft=3;spacingRight=3;rotatable=0;labelPosition=right;points=[];portConstraint=eastwest;" parent="dK_nRXZSWBPesYPL9nkP-9" vertex="1">
          <mxGeometry y="52" width="160" height="8" as="geometry" />
        </mxCell>
        <mxCell id="dK_nRXZSWBPesYPL9nkP-12" value="AddAnimals(): Void&#xa;&#xa;" style="text;align=left;verticalAlign=top;spacingLeft=4;spacingRight=4;overflow=hidden;rotatable=0;points=[[0,0.5],[1,0.5]];portConstraint=eastwest;" parent="dK_nRXZSWBPesYPL9nkP-9" vertex="1">
          <mxGeometry y="60" width="160" height="26" as="geometry" />
        </mxCell>
        <mxCell id="dK_nRXZSWBPesYPL9nkP-13" value="GetAllAnimals(): Void&#xa;&#xa;" style="text;align=left;verticalAlign=top;spacingLeft=4;spacingRight=4;overflow=hidden;rotatable=0;points=[[0,0.5],[1,0.5]];portConstraint=eastwest;" parent="dK_nRXZSWBPesYPL9nkP-9" vertex="1">
          <mxGeometry y="86" width="160" height="26" as="geometry" />
        </mxCell>
        <mxCell id="dK_nRXZSWBPesYPL9nkP-14" value="SavesChanges()" style="text;align=left;verticalAlign=top;spacingLeft=4;spacingRight=4;overflow=hidden;rotatable=0;points=[[0,0.5],[1,0.5]];portConstraint=eastwest;" parent="dK_nRXZSWBPesYPL9nkP-9" vertex="1">
          <mxGeometry y="112" width="160" height="26" as="geometry" />
        </mxCell>
        <mxCell id="dK_nRXZSWBPesYPL9nkP-15" value="+ ExtendContract()" style="text;align=left;verticalAlign=top;spacingLeft=4;spacingRight=4;overflow=hidden;rotatable=0;points=[[0,0.5],[1,0.5]];portConstraint=eastwest;" parent="dK_nRXZSWBPesYPL9nkP-0" vertex="1">
          <mxGeometry x="140" y="1232" width="160" height="26" as="geometry" />
        </mxCell>
        <mxCell id="dK_nRXZSWBPesYPL9nkP-16" value="+ TerminateContract()&#xa;" style="text;align=left;verticalAlign=top;spacingLeft=4;spacingRight=4;overflow=hidden;rotatable=0;points=[[0,0.5],[1,0.5]];portConstraint=eastwest;" parent="dK_nRXZSWBPesYPL9nkP-0" vertex="1">
          <mxGeometry x="140" y="1258" width="160" height="26" as="geometry" />
        </mxCell>
        <mxCell id="dK_nRXZSWBPesYPL9nkP-17" value="" style="endArrow=classic;html=1;rounded=0;entryX=0.496;entryY=-0.011;entryDx=0;entryDy=0;entryPerimeter=0;" parent="dK_nRXZSWBPesYPL9nkP-0" target="dK_nRXZSWBPesYPL9nkP-49" edge="1">
          <mxGeometry width="50" height="50" relative="1" as="geometry">
            <mxPoint x="520" y="250" as="sourcePoint" />
            <mxPoint x="630" y="260" as="targetPoint" />
          </mxGeometry>
        </mxCell>
        <mxCell id="dK_nRXZSWBPesYPL9nkP-18" value="Station" style="swimlane;fontStyle=2;align=center;verticalAlign=top;childLayout=stackLayout;horizontal=1;startSize=26;horizontalStack=0;resizeParent=1;resizeLast=0;collapsible=1;marginBottom=0;rounded=0;shadow=0;strokeWidth=1;" parent="dK_nRXZSWBPesYPL9nkP-0" vertex="1">
          <mxGeometry x="650" y="370" width="160" height="346" as="geometry">
            <mxRectangle x="230" y="140" width="160" height="26" as="alternateBounds" />
          </mxGeometry>
        </mxCell>
        <mxCell id="dK_nRXZSWBPesYPL9nkP-19" value="id : int" style="text;align=left;verticalAlign=top;spacingLeft=4;spacingRight=4;overflow=hidden;rotatable=0;points=[[0,0.5],[1,0.5]];portConstraint=eastwest;" parent="dK_nRXZSWBPesYPL9nkP-18" vertex="1">
          <mxGeometry y="26" width="160" height="26" as="geometry" />
        </mxCell>
        <mxCell id="dK_nRXZSWBPesYPL9nkP-20" value="StationName : string" style="text;align=left;verticalAlign=top;spacingLeft=4;spacingRight=4;overflow=hidden;rotatable=0;points=[[0,0.5],[1,0.5]];portConstraint=eastwest;rounded=0;shadow=0;html=0;" parent="dK_nRXZSWBPesYPL9nkP-18" vertex="1">
          <mxGeometry y="52" width="160" height="26" as="geometry" />
        </mxCell>
        <mxCell id="dK_nRXZSWBPesYPL9nkP-21" value="KmDistance : string" style="text;align=left;verticalAlign=top;spacingLeft=4;spacingRight=4;overflow=hidden;rotatable=0;points=[[0,0.5],[1,0.5]];portConstraint=eastwest;rounded=0;shadow=0;html=0;" parent="dK_nRXZSWBPesYPL9nkP-18" vertex="1">
          <mxGeometry y="78" width="160" height="26" as="geometry" />
        </mxCell>
        <mxCell id="dK_nRXZSWBPesYPL9nkP-22" value="" style="line;html=1;strokeWidth=1;align=left;verticalAlign=middle;spacingTop=-1;spacingLeft=3;spacingRight=3;rotatable=0;labelPosition=right;points=[];portConstraint=eastwest;" parent="dK_nRXZSWBPesYPL9nkP-18" vertex="1">
          <mxGeometry y="104" width="160" height="8" as="geometry" />
        </mxCell>
        <mxCell id="dK_nRXZSWBPesYPL9nkP-23" value="SetKm(KmDistance) : void" style="text;align=left;verticalAlign=top;spacingLeft=4;spacingRight=4;overflow=hidden;rotatable=0;points=[[0,0.5],[1,0.5]];portConstraint=eastwest;rounded=0;shadow=0;html=0;" parent="dK_nRXZSWBPesYPL9nkP-18" vertex="1">
          <mxGeometry y="112" width="160" height="26" as="geometry" />
        </mxCell>
        <mxCell id="dK_nRXZSWBPesYPL9nkP-24" value="SeasonTickets" style="swimlane;fontStyle=2;align=center;verticalAlign=top;childLayout=stackLayout;horizontal=1;startSize=26;horizontalStack=0;resizeParent=1;resizeLast=0;collapsible=1;marginBottom=0;rounded=0;shadow=0;strokeWidth=1;" parent="dK_nRXZSWBPesYPL9nkP-0" vertex="1">
          <mxGeometry x="860" y="370" width="160" height="350" as="geometry">
            <mxRectangle x="230" y="140" width="160" height="26" as="alternateBounds" />
          </mxGeometry>
        </mxCell>
        <mxCell id="dK_nRXZSWBPesYPL9nkP-25" value="id : int" style="text;align=left;verticalAlign=top;spacingLeft=4;spacingRight=4;overflow=hidden;rotatable=0;points=[[0,0.5],[1,0.5]];portConstraint=eastwest;" parent="dK_nRXZSWBPesYPL9nkP-24" vertex="1">
          <mxGeometry y="26" width="160" height="26" as="geometry" />
        </mxCell>
        <mxCell id="dK_nRXZSWBPesYPL9nkP-26" value="SeasonTicketName : string" style="text;align=left;verticalAlign=top;spacingLeft=4;spacingRight=4;overflow=hidden;rotatable=0;points=[[0,0.5],[1,0.5]];portConstraint=eastwest;rounded=0;shadow=0;html=0;" parent="dK_nRXZSWBPesYPL9nkP-24" vertex="1">
          <mxGeometry y="52" width="160" height="26" as="geometry" />
        </mxCell>
        <mxCell id="dK_nRXZSWBPesYPL9nkP-27" value="Price : string" style="text;align=left;verticalAlign=top;spacingLeft=4;spacingRight=4;overflow=hidden;rotatable=0;points=[[0,0.5],[1,0.5]];portConstraint=eastwest;rounded=0;shadow=0;html=0;" parent="dK_nRXZSWBPesYPL9nkP-24" vertex="1">
          <mxGeometry y="78" width="160" height="26" as="geometry" />
        </mxCell>
        <mxCell id="dK_nRXZSWBPesYPL9nkP-28" value="Description : string" style="text;align=left;verticalAlign=top;spacingLeft=4;spacingRight=4;overflow=hidden;rotatable=0;points=[[0,0.5],[1,0.5]];portConstraint=eastwest;rounded=0;shadow=0;html=0;" parent="dK_nRXZSWBPesYPL9nkP-24" vertex="1">
          <mxGeometry y="104" width="160" height="26" as="geometry" />
        </mxCell>
        <mxCell id="dK_nRXZSWBPesYPL9nkP-29" value="" style="line;html=1;strokeWidth=1;align=left;verticalAlign=middle;spacingTop=-1;spacingLeft=3;spacingRight=3;rotatable=0;labelPosition=right;points=[];portConstraint=eastwest;" parent="dK_nRXZSWBPesYPL9nkP-24" vertex="1">
          <mxGeometry y="130" width="160" height="8" as="geometry" />
        </mxCell>
        <mxCell id="dK_nRXZSWBPesYPL9nkP-30" value="" style="endArrow=classic;html=1;rounded=0;entryX=0.425;entryY=-0.013;entryDx=0;entryDy=0;entryPerimeter=0;" parent="dK_nRXZSWBPesYPL9nkP-0" target="dK_nRXZSWBPesYPL9nkP-18" edge="1">
          <mxGeometry width="50" height="50" relative="1" as="geometry">
            <mxPoint x="720" y="250" as="sourcePoint" />
            <mxPoint x="860" y="290" as="targetPoint" />
          </mxGeometry>
        </mxCell>
        <mxCell id="dK_nRXZSWBPesYPL9nkP-31" value="" style="endArrow=classic;html=1;rounded=0;entryX=0.365;entryY=-0.002;entryDx=0;entryDy=0;entryPerimeter=0;" parent="dK_nRXZSWBPesYPL9nkP-0" target="dK_nRXZSWBPesYPL9nkP-24" edge="1">
          <mxGeometry width="50" height="50" relative="1" as="geometry">
            <mxPoint x="920" y="250" as="sourcePoint" />
            <mxPoint x="1010" y="280" as="targetPoint" />
          </mxGeometry>
        </mxCell>
        <mxCell id="dK_nRXZSWBPesYPL9nkP-32" value="    Ticket" style="swimlane;fontStyle=2;align=center;verticalAlign=top;childLayout=stackLayout;horizontal=1;startSize=26;horizontalStack=0;resizeParent=1;resizeLast=0;collapsible=1;marginBottom=0;rounded=0;shadow=0;strokeWidth=1;" parent="dK_nRXZSWBPesYPL9nkP-0" vertex="1">
          <mxGeometry x="660" y="835" width="160" height="200" as="geometry">
            <mxRectangle x="230" y="140" width="160" height="26" as="alternateBounds" />
          </mxGeometry>
        </mxCell>
        <mxCell id="dK_nRXZSWBPesYPL9nkP-33" value="id : int" style="text;align=left;verticalAlign=top;spacingLeft=4;spacingRight=4;overflow=hidden;rotatable=0;points=[[0,0.5],[1,0.5]];portConstraint=eastwest;" parent="dK_nRXZSWBPesYPL9nkP-32" vertex="1">
          <mxGeometry y="26" width="160" height="26" as="geometry" />
        </mxCell>
        <mxCell id="dK_nRXZSWBPesYPL9nkP-34" value="Price : int" style="text;align=left;verticalAlign=top;spacingLeft=4;spacingRight=4;overflow=hidden;rotatable=0;points=[[0,0.5],[1,0.5]];portConstraint=eastwest;" parent="dK_nRXZSWBPesYPL9nkP-32" vertex="1">
          <mxGeometry y="52" width="160" height="26" as="geometry" />
        </mxCell>
        <mxCell id="dK_nRXZSWBPesYPL9nkP-35" value="" style="endArrow=none;html=1;rounded=0;entryX=0.712;entryY=0.583;entryDx=0;entryDy=0;entryPerimeter=0;" parent="dK_nRXZSWBPesYPL9nkP-0" target="dK_nRXZSWBPesYPL9nkP-1" edge="1">
          <mxGeometry width="50" height="50" relative="1" as="geometry">
            <mxPoint x="520" y="770" as="sourcePoint" />
            <mxPoint x="620" y="740" as="targetPoint" />
          </mxGeometry>
        </mxCell>
        <mxCell id="dK_nRXZSWBPesYPL9nkP-36" value="" style="endArrow=none;html=1;rounded=0;" parent="dK_nRXZSWBPesYPL9nkP-0" edge="1">
          <mxGeometry width="50" height="50" relative="1" as="geometry">
            <mxPoint x="740" y="770" as="sourcePoint" />
            <mxPoint x="740" y="720" as="targetPoint" />
          </mxGeometry>
        </mxCell>
        <mxCell id="dK_nRXZSWBPesYPL9nkP-37" value="" style="endArrow=none;html=1;rounded=0;" parent="dK_nRXZSWBPesYPL9nkP-0" edge="1">
          <mxGeometry width="50" height="50" relative="1" as="geometry">
            <mxPoint x="940" y="770" as="sourcePoint" />
            <mxPoint x="940" y="720" as="targetPoint" />
          </mxGeometry>
        </mxCell>
        <mxCell id="dK_nRXZSWBPesYPL9nkP-38" value="" style="endArrow=classic;html=1;rounded=0;entryX=0.5;entryY=0.025;entryDx=0;entryDy=0;entryPerimeter=0;" parent="dK_nRXZSWBPesYPL9nkP-0" target="dK_nRXZSWBPesYPL9nkP-32" edge="1">
          <mxGeometry width="50" height="50" relative="1" as="geometry">
            <mxPoint x="740" y="770" as="sourcePoint" />
            <mxPoint x="390" y="810" as="targetPoint" />
          </mxGeometry>
        </mxCell>
        <mxCell id="dK_nRXZSWBPesYPL9nkP-39" value="BuyTicket() : void()" style="text;align=left;verticalAlign=top;spacingLeft=4;spacingRight=4;overflow=hidden;rotatable=0;points=[[0,0.5],[1,0.5]];portConstraint=eastwest;" parent="dK_nRXZSWBPesYPL9nkP-0" vertex="1">
          <mxGeometry x="660" y="970" width="160" height="26" as="geometry" />
        </mxCell>
        <mxCell id="dK_nRXZSWBPesYPL9nkP-40" value="" style="endArrow=none;html=1;rounded=0;" parent="dK_nRXZSWBPesYPL9nkP-0" edge="1">
          <mxGeometry width="50" height="50" relative="1" as="geometry">
            <mxPoint x="660" y="930" as="sourcePoint" />
            <mxPoint x="820" y="930" as="targetPoint" />
          </mxGeometry>
        </mxCell>
        <mxCell id="dK_nRXZSWBPesYPL9nkP-41" value="ReturnTicket() : void()" style="text;align=left;verticalAlign=top;spacingLeft=4;spacingRight=4;overflow=hidden;rotatable=0;points=[[0,0.5],[1,0.5]];portConstraint=eastwest;" parent="dK_nRXZSWBPesYPL9nkP-0" vertex="1">
          <mxGeometry x="660" y="944" width="160" height="26" as="geometry" />
        </mxCell>
        <mxCell id="dK_nRXZSWBPesYPL9nkP-42" value="LoginService" style="swimlane;fontStyle=0;align=center;verticalAlign=top;childLayout=stackLayout;horizontal=1;startSize=26;horizontalStack=0;resizeParent=1;resizeLast=0;collapsible=1;marginBottom=0;rounded=0;shadow=0;strokeWidth=1;" parent="dK_nRXZSWBPesYPL9nkP-0" vertex="1">
          <mxGeometry x="120" y="220" width="160" height="190" as="geometry">
            <mxRectangle x="230" y="140" width="160" height="26" as="alternateBounds" />
          </mxGeometry>
        </mxCell>
        <mxCell id="dK_nRXZSWBPesYPL9nkP-43" value="List&lt;User&gt; users" style="text;align=left;verticalAlign=top;spacingLeft=4;spacingRight=4;overflow=hidden;rotatable=0;points=[[0,0.5],[1,0.5]];portConstraint=eastwest;" parent="dK_nRXZSWBPesYPL9nkP-42" vertex="1">
          <mxGeometry y="26" width="160" height="26" as="geometry" />
        </mxCell>
        <mxCell id="dK_nRXZSWBPesYPL9nkP-44" value="" style="line;html=1;strokeWidth=1;align=left;verticalAlign=middle;spacingTop=-1;spacingLeft=3;spacingRight=3;rotatable=0;labelPosition=right;points=[];portConstraint=eastwest;" parent="dK_nRXZSWBPesYPL9nkP-42" vertex="1">
          <mxGeometry y="52" width="160" height="8" as="geometry" />
        </mxCell>
        <mxCell id="dK_nRXZSWBPesYPL9nkP-45" value="RegisterUser() : void" style="text;align=left;verticalAlign=top;spacingLeft=4;spacingRight=4;overflow=hidden;rotatable=0;points=[[0,0.5],[1,0.5]];portConstraint=eastwest;" parent="dK_nRXZSWBPesYPL9nkP-42" vertex="1">
          <mxGeometry y="60" width="160" height="26" as="geometry" />
        </mxCell>
        <mxCell id="dK_nRXZSWBPesYPL9nkP-46" value="LogIn() : void" style="text;align=left;verticalAlign=top;spacingLeft=4;spacingRight=4;overflow=hidden;rotatable=0;points=[[0,0.5],[1,0.5]];portConstraint=eastwest;" parent="dK_nRXZSWBPesYPL9nkP-42" vertex="1">
          <mxGeometry y="86" width="160" height="26" as="geometry" />
        </mxCell>
        <mxCell id="dK_nRXZSWBPesYPL9nkP-47" value="" style="endArrow=classic;html=1;rounded=0;entryX=-0.017;entryY=0.565;entryDx=0;entryDy=0;entryPerimeter=0;" parent="dK_nRXZSWBPesYPL9nkP-0" target="dK_nRXZSWBPesYPL9nkP-53" edge="1">
          <mxGeometry width="50" height="50" relative="1" as="geometry">
            <mxPoint x="200" y="480" as="sourcePoint" />
            <mxPoint x="390" y="440" as="targetPoint" />
          </mxGeometry>
        </mxCell>
        <mxCell id="dK_nRXZSWBPesYPL9nkP-48" value="" style="endArrow=none;html=1;rounded=0;" parent="dK_nRXZSWBPesYPL9nkP-0" edge="1">
          <mxGeometry width="50" height="50" relative="1" as="geometry">
            <mxPoint x="200" y="480" as="sourcePoint" />
            <mxPoint x="200" y="410" as="targetPoint" />
          </mxGeometry>
        </mxCell>
        <mxCell id="dK_nRXZSWBPesYPL9nkP-49" value="User" style="swimlane;fontStyle=2;align=center;verticalAlign=top;childLayout=stackLayout;horizontal=1;startSize=26;horizontalStack=0;resizeParent=1;resizeLast=0;collapsible=1;marginBottom=0;rounded=0;shadow=0;strokeWidth=1;" parent="WIyWlLk6GJQsqaUBKTNV-1" vertex="1">
          <mxGeometry x="220" y="120" width="160" height="346" as="geometry">
            <mxRectangle x="230" y="140" width="160" height="26" as="alternateBounds" />
          </mxGeometry>
        </mxCell>
        <mxCell id="dK_nRXZSWBPesYPL9nkP-50" value="id: int" style="text;align=left;verticalAlign=top;spacingLeft=4;spacingRight=4;overflow=hidden;rotatable=0;points=[[0,0.5],[1,0.5]];portConstraint=eastwest;" parent="dK_nRXZSWBPesYPL9nkP-49" vertex="1">
          <mxGeometry y="26" width="160" height="26" as="geometry" />
        </mxCell>
        <mxCell id="dK_nRXZSWBPesYPL9nkP-51" value="firstname : string" style="text;align=left;verticalAlign=top;spacingLeft=4;spacingRight=4;overflow=hidden;rotatable=0;points=[[0,0.5],[1,0.5]];portConstraint=eastwest;rounded=0;shadow=0;html=0;" parent="dK_nRXZSWBPesYPL9nkP-49" vertex="1">
          <mxGeometry y="52" width="160" height="26" as="geometry" />
        </mxCell>
        <mxCell id="dK_nRXZSWBPesYPL9nkP-52" value="surname : string" style="text;align=left;verticalAlign=top;spacingLeft=4;spacingRight=4;overflow=hidden;rotatable=0;points=[[0,0.5],[1,0.5]];portConstraint=eastwest;rounded=0;shadow=0;html=0;" parent="dK_nRXZSWBPesYPL9nkP-49" vertex="1">
          <mxGeometry y="78" width="160" height="26" as="geometry" />
        </mxCell>
        <mxCell id="dK_nRXZSWBPesYPL9nkP-53" value="username : string" style="text;align=left;verticalAlign=top;spacingLeft=4;spacingRight=4;overflow=hidden;rotatable=0;points=[[0,0.5],[1,0.5]];portConstraint=eastwest;rounded=0;shadow=0;html=0;" parent="dK_nRXZSWBPesYPL9nkP-49" vertex="1">
          <mxGeometry y="104" width="160" height="26" as="geometry" />
        </mxCell>
        <mxCell id="dK_nRXZSWBPesYPL9nkP-54" value="password : string" style="text;align=left;verticalAlign=top;spacingLeft=4;spacingRight=4;overflow=hidden;rotatable=0;points=[[0,0.5],[1,0.5]];portConstraint=eastwest;rounded=0;shadow=0;html=0;" parent="dK_nRXZSWBPesYPL9nkP-49" vertex="1">
          <mxGeometry y="130" width="160" height="26" as="geometry" />
        </mxCell>
        <mxCell id="dK_nRXZSWBPesYPL9nkP-55" value="birthday : string" style="text;align=left;verticalAlign=top;spacingLeft=4;spacingRight=4;overflow=hidden;rotatable=0;points=[[0,0.5],[1,0.5]];portConstraint=eastwest;rounded=0;shadow=0;html=0;" parent="dK_nRXZSWBPesYPL9nkP-49" vertex="1">
          <mxGeometry y="156" width="160" height="26" as="geometry" />
        </mxCell>
        <mxCell id="dK_nRXZSWBPesYPL9nkP-56" value="phone : int" style="text;align=left;verticalAlign=top;spacingLeft=4;spacingRight=4;overflow=hidden;rotatable=0;points=[[0,0.5],[1,0.5]];portConstraint=eastwest;rounded=0;shadow=0;html=0;" parent="dK_nRXZSWBPesYPL9nkP-49" vertex="1">
          <mxGeometry y="182" width="160" height="26" as="geometry" />
        </mxCell>
        <mxCell id="dK_nRXZSWBPesYPL9nkP-57" value="address : string" style="text;align=left;verticalAlign=top;spacingLeft=4;spacingRight=4;overflow=hidden;rotatable=0;points=[[0,0.5],[1,0.5]];portConstraint=eastwest;rounded=0;shadow=0;html=0;" parent="dK_nRXZSWBPesYPL9nkP-49" vertex="1">
          <mxGeometry y="208" width="160" height="26" as="geometry" />
        </mxCell>
        <mxCell id="dK_nRXZSWBPesYPL9nkP-58" value="city : string" style="text;align=left;verticalAlign=top;spacingLeft=4;spacingRight=4;overflow=hidden;rotatable=0;points=[[0,0.5],[1,0.5]];portConstraint=eastwest;rounded=0;shadow=0;html=0;" parent="dK_nRXZSWBPesYPL9nkP-49" vertex="1">
          <mxGeometry y="234" width="160" height="26" as="geometry" />
        </mxCell>
        <mxCell id="dK_nRXZSWBPesYPL9nkP-59" value="Email : string" style="text;align=left;verticalAlign=top;spacingLeft=4;spacingRight=4;overflow=hidden;rotatable=0;points=[[0,0.5],[1,0.5]];portConstraint=eastwest;rounded=0;shadow=0;html=0;" parent="dK_nRXZSWBPesYPL9nkP-49" vertex="1">
          <mxGeometry y="260" width="160" height="26" as="geometry" />
        </mxCell>
        <mxCell id="dK_nRXZSWBPesYPL9nkP-60" value="" style="line;html=1;strokeWidth=1;align=left;verticalAlign=middle;spacingTop=-1;spacingLeft=3;spacingRight=3;rotatable=0;labelPosition=right;points=[];portConstraint=eastwest;" parent="dK_nRXZSWBPesYPL9nkP-49" vertex="1">
          <mxGeometry y="286" width="160" height="8" as="geometry" />
        </mxCell>
        <mxCell id="dK_nRXZSWBPesYPL9nkP-61" value="Login(int id): void" style="text;align=left;verticalAlign=top;spacingLeft=4;spacingRight=4;overflow=hidden;rotatable=0;points=[[0,0.5],[1,0.5]];portConstraint=eastwest;rounded=0;shadow=0;html=0;" parent="dK_nRXZSWBPesYPL9nkP-49" vertex="1">
          <mxGeometry y="294" width="160" height="26" as="geometry" />
        </mxCell>
        <mxCell id="dK_nRXZSWBPesYPL9nkP-62" value="Getstring()" style="text;align=left;verticalAlign=top;spacingLeft=4;spacingRight=4;overflow=hidden;rotatable=0;points=[[0,0.5],[1,0.5]];portConstraint=eastwest;rounded=0;shadow=0;html=0;" parent="dK_nRXZSWBPesYPL9nkP-49" vertex="1">
          <mxGeometry y="320" width="160" height="26" as="geometry" />
        </mxCell>
        <mxCell id="dK_nRXZSWBPesYPL9nkP-63" value="" style="group" parent="WIyWlLk6GJQsqaUBKTNV-1" connectable="0" vertex="1">
          <mxGeometry x="-1810" y="-260" width="1320" height="1320" as="geometry" />
        </mxCell>
        <mxCell id="dK_nRXZSWBPesYPL9nkP-64" value="" style="whiteSpace=wrap;html=1;aspect=fixed;labelBorderColor=#00CCCC;labelBackgroundColor=#99FF99;" parent="dK_nRXZSWBPesYPL9nkP-63" vertex="1">
          <mxGeometry x="20" y="10" width="1320" height="1320" as="geometry" />
        </mxCell>
        <mxCell id="dK_nRXZSWBPesYPL9nkP-65" value="Data" style="text;html=1;strokeColor=none;fillColor=none;align=center;verticalAlign=middle;whiteSpace=wrap;rounded=0;fontStyle=1;fontSize=85;" parent="dK_nRXZSWBPesYPL9nkP-63" vertex="1">
          <mxGeometry x="120" y="60" width="60" height="30" as="geometry" />
        </mxCell>
        <mxCell id="dK_nRXZSWBPesYPL9nkP-66" value="BaseDAL" style="swimlane;fontStyle=2;align=center;verticalAlign=top;childLayout=stackLayout;horizontal=1;startSize=26;horizontalStack=0;resizeParent=1;resizeLast=0;collapsible=1;marginBottom=0;rounded=0;shadow=0;strokeWidth=1;" parent="dK_nRXZSWBPesYPL9nkP-63" vertex="1">
          <mxGeometry x="530" y="80" width="160" height="120" as="geometry">
            <mxRectangle x="230" y="140" width="160" height="26" as="alternateBounds" />
          </mxGeometry>
        </mxCell>
        <mxCell id="dK_nRXZSWBPesYPL9nkP-67" value="- connectionString : string" style="text;align=left;verticalAlign=top;spacingLeft=4;spacingRight=4;overflow=hidden;rotatable=0;points=[[0,0.5],[1,0.5]];portConstraint=eastwest;" parent="dK_nRXZSWBPesYPL9nkP-66" vertex="1">
          <mxGeometry y="26" width="160" height="26" as="geometry" />
        </mxCell>
        <mxCell id="dK_nRXZSWBPesYPL9nkP-68" value="" style="line;html=1;strokeWidth=1;align=left;verticalAlign=middle;spacingTop=-1;spacingLeft=3;spacingRight=3;rotatable=0;labelPosition=right;points=[];portConstraint=eastwest;" parent="dK_nRXZSWBPesYPL9nkP-66" vertex="1">
          <mxGeometry y="52" width="160" height="8" as="geometry" />
        </mxCell>
        <mxCell id="dK_nRXZSWBPesYPL9nkP-69" value="# CreateConnection" style="text;align=left;verticalAlign=top;spacingLeft=4;spacingRight=4;overflow=hidden;rotatable=0;points=[[0,0.5],[1,0.5]];portConstraint=eastwest;rounded=0;shadow=0;html=0;" parent="dK_nRXZSWBPesYPL9nkP-66" vertex="1">
          <mxGeometry y="60" width="160" height="26" as="geometry" />
        </mxCell>
        <mxCell id="dK_nRXZSWBPesYPL9nkP-70" value="set" style="text;align=left;verticalAlign=top;spacingLeft=4;spacingRight=4;overflow=hidden;rotatable=0;points=[[0,0.5],[1,0.5]];portConstraint=eastwest;rounded=0;shadow=0;html=0;" parent="dK_nRXZSWBPesYPL9nkP-66" vertex="1">
          <mxGeometry y="86" width="160" height="26" as="geometry" />
        </mxCell>
        <mxCell id="dK_nRXZSWBPesYPL9nkP-71" value="SeasonTicketsDataTraffic" style="swimlane;fontStyle=2;align=center;verticalAlign=top;childLayout=stackLayout;horizontal=1;startSize=26;horizontalStack=0;resizeParent=1;resizeLast=0;collapsible=1;marginBottom=0;rounded=0;shadow=0;strokeWidth=1;" parent="dK_nRXZSWBPesYPL9nkP-63" vertex="1">
          <mxGeometry x="310" y="550" width="160" height="200" as="geometry">
            <mxRectangle x="230" y="140" width="160" height="26" as="alternateBounds" />
          </mxGeometry>
        </mxCell>
        <mxCell id="dK_nRXZSWBPesYPL9nkP-72" value="." style="text;align=left;verticalAlign=top;spacingLeft=4;spacingRight=4;overflow=hidden;rotatable=0;points=[[0,0.5],[1,0.5]];portConstraint=eastwest;rounded=0;shadow=0;html=0;" parent="dK_nRXZSWBPesYPL9nkP-71" vertex="1">
          <mxGeometry y="26" width="160" height="26" as="geometry" />
        </mxCell>
        <mxCell id="dK_nRXZSWBPesYPL9nkP-73" value="" style="line;html=1;strokeWidth=1;align=left;verticalAlign=middle;spacingTop=-1;spacingLeft=3;spacingRight=3;rotatable=0;labelPosition=right;points=[];portConstraint=eastwest;" parent="dK_nRXZSWBPesYPL9nkP-71" vertex="1">
          <mxGeometry y="52" width="160" height="8" as="geometry" />
        </mxCell>
        <mxCell id="dK_nRXZSWBPesYPL9nkP-74" value="GetSeasonTickets" style="text;align=left;verticalAlign=top;spacingLeft=4;spacingRight=4;overflow=hidden;rotatable=0;points=[[0,0.5],[1,0.5]];portConstraint=eastwest;rounded=0;shadow=0;html=0;" parent="dK_nRXZSWBPesYPL9nkP-71" vertex="1">
          <mxGeometry y="60" width="160" height="26" as="geometry" />
        </mxCell>
        <mxCell id="dK_nRXZSWBPesYPL9nkP-75" value="AddSeasonTickets" style="text;align=left;verticalAlign=top;spacingLeft=4;spacingRight=4;overflow=hidden;rotatable=0;points=[[0,0.5],[1,0.5]];portConstraint=eastwest;rounded=0;shadow=0;html=0;" parent="dK_nRXZSWBPesYPL9nkP-71" vertex="1">
          <mxGeometry y="86" width="160" height="26" as="geometry" />
        </mxCell>
        <mxCell id="dK_nRXZSWBPesYPL9nkP-76" value="UpdateSeasonTicket" style="text;align=left;verticalAlign=top;spacingLeft=4;spacingRight=4;overflow=hidden;rotatable=0;points=[[0,0.5],[1,0.5]];portConstraint=eastwest;rounded=0;shadow=0;html=0;" parent="dK_nRXZSWBPesYPL9nkP-71" vertex="1">
          <mxGeometry y="112" width="160" height="26" as="geometry" />
        </mxCell>
        <mxCell id="dK_nRXZSWBPesYPL9nkP-77" value="AnimalDataTraffic" style="swimlane;fontStyle=2;align=center;verticalAlign=top;childLayout=stackLayout;horizontal=1;startSize=26;horizontalStack=0;resizeParent=1;resizeLast=0;collapsible=1;marginBottom=0;rounded=0;shadow=0;strokeWidth=1;" parent="dK_nRXZSWBPesYPL9nkP-63" vertex="1">
          <mxGeometry x="530" y="550" width="160" height="200" as="geometry">
            <mxRectangle x="230" y="140" width="160" height="26" as="alternateBounds" />
          </mxGeometry>
        </mxCell>
        <mxCell id="dK_nRXZSWBPesYPL9nkP-78" value="." style="text;align=left;verticalAlign=top;spacingLeft=4;spacingRight=4;overflow=hidden;rotatable=0;points=[[0,0.5],[1,0.5]];portConstraint=eastwest;rounded=0;shadow=0;html=0;" parent="dK_nRXZSWBPesYPL9nkP-77" vertex="1">
          <mxGeometry y="26" width="160" height="26" as="geometry" />
        </mxCell>
        <mxCell id="dK_nRXZSWBPesYPL9nkP-79" value="" style="line;html=1;strokeWidth=1;align=left;verticalAlign=middle;spacingTop=-1;spacingLeft=3;spacingRight=3;rotatable=0;labelPosition=right;points=[];portConstraint=eastwest;" parent="dK_nRXZSWBPesYPL9nkP-77" vertex="1">
          <mxGeometry y="52" width="160" height="8" as="geometry" />
        </mxCell>
        <mxCell id="dK_nRXZSWBPesYPL9nkP-80" value="GetAnimalById" style="text;align=left;verticalAlign=top;spacingLeft=4;spacingRight=4;overflow=hidden;rotatable=0;points=[[0,0.5],[1,0.5]];portConstraint=eastwest;rounded=0;shadow=0;html=0;" parent="dK_nRXZSWBPesYPL9nkP-77" vertex="1">
          <mxGeometry y="60" width="160" height="26" as="geometry" />
        </mxCell>
        <mxCell id="dK_nRXZSWBPesYPL9nkP-81" value="AddAnimal()" style="text;align=left;verticalAlign=top;spacingLeft=4;spacingRight=4;overflow=hidden;rotatable=0;points=[[0,0.5],[1,0.5]];portConstraint=eastwest;rounded=0;shadow=0;html=0;" parent="dK_nRXZSWBPesYPL9nkP-77" vertex="1">
          <mxGeometry y="86" width="160" height="26" as="geometry" />
        </mxCell>
        <mxCell id="dK_nRXZSWBPesYPL9nkP-82" value="UpdateUser()" style="text;align=left;verticalAlign=top;spacingLeft=4;spacingRight=4;overflow=hidden;rotatable=0;points=[[0,0.5],[1,0.5]];portConstraint=eastwest;rounded=0;shadow=0;html=0;" parent="dK_nRXZSWBPesYPL9nkP-77" vertex="1">
          <mxGeometry y="112" width="160" height="26" as="geometry" />
        </mxCell>
        <mxCell id="dK_nRXZSWBPesYPL9nkP-83" value="DataHandler" style="swimlane;fontStyle=2;align=center;verticalAlign=top;childLayout=stackLayout;horizontal=1;startSize=26;horizontalStack=0;resizeParent=1;resizeLast=0;collapsible=1;marginBottom=0;rounded=0;shadow=0;strokeWidth=1;" parent="dK_nRXZSWBPesYPL9nkP-63" vertex="1">
          <mxGeometry x="530" y="250" width="160" height="200" as="geometry">
            <mxRectangle x="230" y="140" width="160" height="26" as="alternateBounds" />
          </mxGeometry>
        </mxCell>
        <mxCell id="dK_nRXZSWBPesYPL9nkP-84" value="ReadData()" style="text;align=left;verticalAlign=top;spacingLeft=4;spacingRight=4;overflow=hidden;rotatable=0;points=[[0,0.5],[1,0.5]];portConstraint=eastwest;rounded=0;shadow=0;html=0;" parent="dK_nRXZSWBPesYPL9nkP-83" vertex="1">
          <mxGeometry y="26" width="160" height="26" as="geometry" />
        </mxCell>
        <mxCell id="dK_nRXZSWBPesYPL9nkP-85" value="ExecuteQuery()" style="text;align=left;verticalAlign=top;spacingLeft=4;spacingRight=4;overflow=hidden;rotatable=0;points=[[0,0.5],[1,0.5]];portConstraint=eastwest;rounded=0;shadow=0;html=0;" parent="dK_nRXZSWBPesYPL9nkP-83" vertex="1">
          <mxGeometry y="52" width="160" height="26" as="geometry" />
        </mxCell>
        <mxCell id="dK_nRXZSWBPesYPL9nkP-86" value="" style="line;html=1;strokeWidth=1;align=left;verticalAlign=middle;spacingTop=-1;spacingLeft=3;spacingRight=3;rotatable=0;labelPosition=right;points=[];portConstraint=eastwest;" parent="dK_nRXZSWBPesYPL9nkP-83" vertex="1">
          <mxGeometry y="78" width="160" height="8" as="geometry" />
        </mxCell>
        <mxCell id="dK_nRXZSWBPesYPL9nkP-87" value="Get" style="text;align=left;verticalAlign=top;spacingLeft=4;spacingRight=4;overflow=hidden;rotatable=0;points=[[0,0.5],[1,0.5]];portConstraint=eastwest;rounded=0;shadow=0;html=0;" parent="dK_nRXZSWBPesYPL9nkP-83" vertex="1">
          <mxGeometry y="86" width="160" height="26" as="geometry" />
        </mxCell>
        <mxCell id="dK_nRXZSWBPesYPL9nkP-88" value="set" style="text;align=left;verticalAlign=top;spacingLeft=4;spacingRight=4;overflow=hidden;rotatable=0;points=[[0,0.5],[1,0.5]];portConstraint=eastwest;rounded=0;shadow=0;html=0;" parent="dK_nRXZSWBPesYPL9nkP-83" vertex="1">
          <mxGeometry y="112" width="160" height="26" as="geometry" />
        </mxCell>
        <mxCell id="dK_nRXZSWBPesYPL9nkP-89" value="DataHandler" style="swimlane;fontStyle=2;align=center;verticalAlign=top;childLayout=stackLayout;horizontal=1;startSize=26;horizontalStack=0;resizeParent=1;resizeLast=0;collapsible=1;marginBottom=0;rounded=0;shadow=0;strokeWidth=1;" parent="dK_nRXZSWBPesYPL9nkP-63" vertex="1">
          <mxGeometry x="780" y="250" width="160" height="200" as="geometry">
            <mxRectangle x="230" y="140" width="160" height="26" as="alternateBounds" />
          </mxGeometry>
        </mxCell>
        <mxCell id="dK_nRXZSWBPesYPL9nkP-90" value="." style="text;align=left;verticalAlign=top;spacingLeft=4;spacingRight=4;overflow=hidden;rotatable=0;points=[[0,0.5],[1,0.5]];portConstraint=eastwest;rounded=0;shadow=0;html=0;" parent="dK_nRXZSWBPesYPL9nkP-89" vertex="1">
          <mxGeometry y="26" width="160" height="26" as="geometry" />
        </mxCell>
        <mxCell id="dK_nRXZSWBPesYPL9nkP-91" value="" style="line;html=1;strokeWidth=1;align=left;verticalAlign=middle;spacingTop=-1;spacingLeft=3;spacingRight=3;rotatable=0;labelPosition=right;points=[];portConstraint=eastwest;" parent="dK_nRXZSWBPesYPL9nkP-89" vertex="1">
          <mxGeometry y="52" width="160" height="8" as="geometry" />
        </mxCell>
        <mxCell id="dK_nRXZSWBPesYPL9nkP-92" value="UserDataConverting" style="swimlane;fontStyle=2;align=center;verticalAlign=top;childLayout=stackLayout;horizontal=1;startSize=26;horizontalStack=0;resizeParent=1;resizeLast=0;collapsible=1;marginBottom=0;rounded=0;shadow=0;strokeWidth=1;" parent="dK_nRXZSWBPesYPL9nkP-63" vertex="1">
          <mxGeometry x="530" y="820" width="160" height="356" as="geometry">
            <mxRectangle x="230" y="140" width="160" height="26" as="alternateBounds" />
          </mxGeometry>
        </mxCell>
        <mxCell id="dK_nRXZSWBPesYPL9nkP-93" value="id" style="text;align=left;verticalAlign=top;spacingLeft=4;spacingRight=4;overflow=hidden;rotatable=0;points=[[0,0.5],[1,0.5]];portConstraint=eastwest;" parent="dK_nRXZSWBPesYPL9nkP-92" vertex="1">
          <mxGeometry y="26" width="160" height="26" as="geometry" />
        </mxCell>
        <mxCell id="dK_nRXZSWBPesYPL9nkP-94" value="firstname" style="text;align=left;verticalAlign=top;spacingLeft=4;spacingRight=4;overflow=hidden;rotatable=0;points=[[0,0.5],[1,0.5]];portConstraint=eastwest;rounded=0;shadow=0;html=0;" parent="dK_nRXZSWBPesYPL9nkP-92" vertex="1">
          <mxGeometry y="52" width="160" height="26" as="geometry" />
        </mxCell>
        <mxCell id="dK_nRXZSWBPesYPL9nkP-95" value="surname" style="text;align=left;verticalAlign=top;spacingLeft=4;spacingRight=4;overflow=hidden;rotatable=0;points=[[0,0.5],[1,0.5]];portConstraint=eastwest;rounded=0;shadow=0;html=0;" parent="dK_nRXZSWBPesYPL9nkP-92" vertex="1">
          <mxGeometry y="78" width="160" height="26" as="geometry" />
        </mxCell>
        <mxCell id="dK_nRXZSWBPesYPL9nkP-96" value="username" style="text;align=left;verticalAlign=top;spacingLeft=4;spacingRight=4;overflow=hidden;rotatable=0;points=[[0,0.5],[1,0.5]];portConstraint=eastwest;rounded=0;shadow=0;html=0;" parent="dK_nRXZSWBPesYPL9nkP-92" vertex="1">
          <mxGeometry y="104" width="160" height="26" as="geometry" />
        </mxCell>
        <mxCell id="dK_nRXZSWBPesYPL9nkP-97" value="password" style="text;align=left;verticalAlign=top;spacingLeft=4;spacingRight=4;overflow=hidden;rotatable=0;points=[[0,0.5],[1,0.5]];portConstraint=eastwest;rounded=0;shadow=0;html=0;" parent="dK_nRXZSWBPesYPL9nkP-92" vertex="1">
          <mxGeometry y="130" width="160" height="26" as="geometry" />
        </mxCell>
        <mxCell id="dK_nRXZSWBPesYPL9nkP-98" value="birthday" style="text;align=left;verticalAlign=top;spacingLeft=4;spacingRight=4;overflow=hidden;rotatable=0;points=[[0,0.5],[1,0.5]];portConstraint=eastwest;rounded=0;shadow=0;html=0;" parent="dK_nRXZSWBPesYPL9nkP-92" vertex="1">
          <mxGeometry y="156" width="160" height="26" as="geometry" />
        </mxCell>
        <mxCell id="dK_nRXZSWBPesYPL9nkP-99" value="phone" style="text;align=left;verticalAlign=top;spacingLeft=4;spacingRight=4;overflow=hidden;rotatable=0;points=[[0,0.5],[1,0.5]];portConstraint=eastwest;rounded=0;shadow=0;html=0;" parent="dK_nRXZSWBPesYPL9nkP-92" vertex="1">
          <mxGeometry y="182" width="160" height="26" as="geometry" />
        </mxCell>
        <mxCell id="dK_nRXZSWBPesYPL9nkP-100" value="address" style="text;align=left;verticalAlign=top;spacingLeft=4;spacingRight=4;overflow=hidden;rotatable=0;points=[[0,0.5],[1,0.5]];portConstraint=eastwest;rounded=0;shadow=0;html=0;" parent="dK_nRXZSWBPesYPL9nkP-92" vertex="1">
          <mxGeometry y="208" width="160" height="26" as="geometry" />
        </mxCell>
        <mxCell id="dK_nRXZSWBPesYPL9nkP-101" value="city" style="text;align=left;verticalAlign=top;spacingLeft=4;spacingRight=4;overflow=hidden;rotatable=0;points=[[0,0.5],[1,0.5]];portConstraint=eastwest;rounded=0;shadow=0;html=0;" parent="dK_nRXZSWBPesYPL9nkP-92" vertex="1">
          <mxGeometry y="234" width="160" height="26" as="geometry" />
        </mxCell>
        <mxCell id="dK_nRXZSWBPesYPL9nkP-102" value="Email" style="text;align=left;verticalAlign=top;spacingLeft=4;spacingRight=4;overflow=hidden;rotatable=0;points=[[0,0.5],[1,0.5]];portConstraint=eastwest;rounded=0;shadow=0;html=0;" parent="dK_nRXZSWBPesYPL9nkP-92" vertex="1">
          <mxGeometry y="260" width="160" height="26" as="geometry" />
        </mxCell>
        <mxCell id="dK_nRXZSWBPesYPL9nkP-103" value="" style="line;html=1;strokeWidth=1;align=left;verticalAlign=middle;spacingTop=-1;spacingLeft=3;spacingRight=3;rotatable=0;labelPosition=right;points=[];portConstraint=eastwest;" parent="dK_nRXZSWBPesYPL9nkP-92" vertex="1">
          <mxGeometry y="286" width="160" height="8" as="geometry" />
        </mxCell>
        <mxCell id="dK_nRXZSWBPesYPL9nkP-104" value="Get" style="text;align=left;verticalAlign=top;spacingLeft=4;spacingRight=4;overflow=hidden;rotatable=0;points=[[0,0.5],[1,0.5]];portConstraint=eastwest;rounded=0;shadow=0;html=0;" parent="dK_nRXZSWBPesYPL9nkP-92" vertex="1">
          <mxGeometry y="294" width="160" height="26" as="geometry" />
        </mxCell>
        <mxCell id="dK_nRXZSWBPesYPL9nkP-105" value="set" style="text;align=left;verticalAlign=top;spacingLeft=4;spacingRight=4;overflow=hidden;rotatable=0;points=[[0,0.5],[1,0.5]];portConstraint=eastwest;rounded=0;shadow=0;html=0;" parent="dK_nRXZSWBPesYPL9nkP-92" vertex="1">
          <mxGeometry y="320" width="160" height="26" as="geometry" />
        </mxCell>
        <mxCell id="dK_nRXZSWBPesYPL9nkP-106" value="StationDataTraffic" style="swimlane;fontStyle=2;align=center;verticalAlign=top;childLayout=stackLayout;horizontal=1;startSize=26;horizontalStack=0;resizeParent=1;resizeLast=0;collapsible=1;marginBottom=0;rounded=0;shadow=0;strokeWidth=1;" parent="dK_nRXZSWBPesYPL9nkP-63" vertex="1">
          <mxGeometry x="750" y="550" width="160" height="200" as="geometry">
            <mxRectangle x="230" y="140" width="160" height="26" as="alternateBounds" />
          </mxGeometry>
        </mxCell>
        <mxCell id="dK_nRXZSWBPesYPL9nkP-107" value="." style="text;align=left;verticalAlign=top;spacingLeft=4;spacingRight=4;overflow=hidden;rotatable=0;points=[[0,0.5],[1,0.5]];portConstraint=eastwest;rounded=0;shadow=0;html=0;" parent="dK_nRXZSWBPesYPL9nkP-106" vertex="1">
          <mxGeometry y="26" width="160" height="26" as="geometry" />
        </mxCell>
        <mxCell id="dK_nRXZSWBPesYPL9nkP-108" value="" style="line;html=1;strokeWidth=1;align=left;verticalAlign=middle;spacingTop=-1;spacingLeft=3;spacingRight=3;rotatable=0;labelPosition=right;points=[];portConstraint=eastwest;" parent="dK_nRXZSWBPesYPL9nkP-106" vertex="1">
          <mxGeometry y="52" width="160" height="8" as="geometry" />
        </mxCell>
        <mxCell id="dK_nRXZSWBPesYPL9nkP-109" value="GetStations()" style="text;align=left;verticalAlign=top;spacingLeft=4;spacingRight=4;overflow=hidden;rotatable=0;points=[[0,0.5],[1,0.5]];portConstraint=eastwest;rounded=0;shadow=0;html=0;" parent="dK_nRXZSWBPesYPL9nkP-106" vertex="1">
          <mxGeometry y="60" width="160" height="26" as="geometry" />
        </mxCell>
        <mxCell id="dK_nRXZSWBPesYPL9nkP-110" value="AddStation()" style="text;align=left;verticalAlign=top;spacingLeft=4;spacingRight=4;overflow=hidden;rotatable=0;points=[[0,0.5],[1,0.5]];portConstraint=eastwest;rounded=0;shadow=0;html=0;" parent="dK_nRXZSWBPesYPL9nkP-106" vertex="1">
          <mxGeometry y="86" width="160" height="26" as="geometry" />
        </mxCell>
        <mxCell id="dK_nRXZSWBPesYPL9nkP-111" value="RemoveStation()" style="text;align=left;verticalAlign=top;spacingLeft=4;spacingRight=4;overflow=hidden;rotatable=0;points=[[0,0.5],[1,0.5]];portConstraint=eastwest;rounded=0;shadow=0;html=0;" parent="dK_nRXZSWBPesYPL9nkP-106" vertex="1">
          <mxGeometry y="112" width="160" height="26" as="geometry" />
        </mxCell>
        <mxCell id="dK_nRXZSWBPesYPL9nkP-112" value="SeasonTicketsConverting" style="swimlane;fontStyle=2;align=center;verticalAlign=top;childLayout=stackLayout;horizontal=1;startSize=26;horizontalStack=0;resizeParent=1;resizeLast=0;collapsible=1;marginBottom=0;rounded=0;shadow=0;strokeWidth=1;" parent="dK_nRXZSWBPesYPL9nkP-63" vertex="1">
          <mxGeometry x="310" y="820" width="160" height="356" as="geometry">
            <mxRectangle x="230" y="140" width="160" height="26" as="alternateBounds" />
          </mxGeometry>
        </mxCell>
        <mxCell id="dK_nRXZSWBPesYPL9nkP-113" value="id" style="text;align=left;verticalAlign=top;spacingLeft=4;spacingRight=4;overflow=hidden;rotatable=0;points=[[0,0.5],[1,0.5]];portConstraint=eastwest;" parent="dK_nRXZSWBPesYPL9nkP-112" vertex="1">
          <mxGeometry y="26" width="160" height="26" as="geometry" />
        </mxCell>
        <mxCell id="dK_nRXZSWBPesYPL9nkP-114" value="SeasonTicketName" style="text;align=left;verticalAlign=top;spacingLeft=4;spacingRight=4;overflow=hidden;rotatable=0;points=[[0,0.5],[1,0.5]];portConstraint=eastwest;rounded=0;shadow=0;html=0;" parent="dK_nRXZSWBPesYPL9nkP-112" vertex="1">
          <mxGeometry y="52" width="160" height="26" as="geometry" />
        </mxCell>
        <mxCell id="dK_nRXZSWBPesYPL9nkP-115" value="Price" style="text;align=left;verticalAlign=top;spacingLeft=4;spacingRight=4;overflow=hidden;rotatable=0;points=[[0,0.5],[1,0.5]];portConstraint=eastwest;rounded=0;shadow=0;html=0;" parent="dK_nRXZSWBPesYPL9nkP-112" vertex="1">
          <mxGeometry y="78" width="160" height="26" as="geometry" />
        </mxCell>
        <mxCell id="dK_nRXZSWBPesYPL9nkP-116" value="Description" style="text;align=left;verticalAlign=top;spacingLeft=4;spacingRight=4;overflow=hidden;rotatable=0;points=[[0,0.5],[1,0.5]];portConstraint=eastwest;rounded=0;shadow=0;html=0;" parent="dK_nRXZSWBPesYPL9nkP-112" vertex="1">
          <mxGeometry y="104" width="160" height="26" as="geometry" />
        </mxCell>
        <mxCell id="dK_nRXZSWBPesYPL9nkP-117" value="" style="line;html=1;strokeWidth=1;align=left;verticalAlign=middle;spacingTop=-1;spacingLeft=3;spacingRight=3;rotatable=0;labelPosition=right;points=[];portConstraint=eastwest;" parent="dK_nRXZSWBPesYPL9nkP-112" vertex="1">
          <mxGeometry y="130" width="160" height="8" as="geometry" />
        </mxCell>
        <mxCell id="dK_nRXZSWBPesYPL9nkP-118" value="get " style="text;align=left;verticalAlign=top;spacingLeft=4;spacingRight=4;overflow=hidden;rotatable=0;points=[[0,0.5],[1,0.5]];portConstraint=eastwest;rounded=0;shadow=0;html=0;" parent="dK_nRXZSWBPesYPL9nkP-112" vertex="1">
          <mxGeometry y="138" width="160" height="26" as="geometry" />
        </mxCell>
        <mxCell id="dK_nRXZSWBPesYPL9nkP-119" value="set" style="text;align=left;verticalAlign=top;spacingLeft=4;spacingRight=4;overflow=hidden;rotatable=0;points=[[0,0.5],[1,0.5]];portConstraint=eastwest;rounded=0;shadow=0;html=0;" parent="dK_nRXZSWBPesYPL9nkP-112" vertex="1">
          <mxGeometry y="164" width="160" height="26" as="geometry" />
        </mxCell>
        <mxCell id="dK_nRXZSWBPesYPL9nkP-120" value="" style="endArrow=classic;html=1;rounded=0;" parent="dK_nRXZSWBPesYPL9nkP-63" target="dK_nRXZSWBPesYPL9nkP-83" edge="1">
          <mxGeometry width="50" height="50" relative="1" as="geometry">
            <mxPoint x="610" y="200" as="sourcePoint" />
            <mxPoint x="400" y="180" as="targetPoint" />
          </mxGeometry>
        </mxCell>
        <mxCell id="dK_nRXZSWBPesYPL9nkP-121" value="" style="endArrow=classic;html=1;rounded=0;exitX=1.014;exitY=0.131;exitDx=0;exitDy=0;exitPerimeter=0;" parent="dK_nRXZSWBPesYPL9nkP-63" source="dK_nRXZSWBPesYPL9nkP-87" edge="1">
          <mxGeometry width="50" height="50" relative="1" as="geometry">
            <mxPoint x="690" y="330" as="sourcePoint" />
            <mxPoint x="780" y="340" as="targetPoint" />
          </mxGeometry>
        </mxCell>
        <mxCell id="dK_nRXZSWBPesYPL9nkP-122" value="" style="endArrow=classic;html=1;rounded=0;entryX=0.383;entryY=-0.027;entryDx=0;entryDy=0;entryPerimeter=0;" parent="dK_nRXZSWBPesYPL9nkP-63" target="dK_nRXZSWBPesYPL9nkP-71" edge="1">
          <mxGeometry width="50" height="50" relative="1" as="geometry">
            <mxPoint x="370" y="510" as="sourcePoint" />
            <mxPoint x="310" y="470" as="targetPoint" />
          </mxGeometry>
        </mxCell>
        <mxCell id="dK_nRXZSWBPesYPL9nkP-123" value="" style="endArrow=none;html=1;rounded=0;exitX=0.447;exitY=0.379;exitDx=0;exitDy=0;exitPerimeter=0;" parent="dK_nRXZSWBPesYPL9nkP-63" source="dK_nRXZSWBPesYPL9nkP-64" edge="1">
          <mxGeometry width="50" height="50" relative="1" as="geometry">
            <mxPoint x="580" y="500" as="sourcePoint" />
            <mxPoint x="610" y="450" as="targetPoint" />
          </mxGeometry>
        </mxCell>
        <mxCell id="dK_nRXZSWBPesYPL9nkP-124" value="" style="endArrow=none;html=1;rounded=0;entryX=0.629;entryY=0.379;entryDx=0;entryDy=0;entryPerimeter=0;exitX=0.265;exitY=0.379;exitDx=0;exitDy=0;exitPerimeter=0;" parent="dK_nRXZSWBPesYPL9nkP-63" source="dK_nRXZSWBPesYPL9nkP-64" target="dK_nRXZSWBPesYPL9nkP-64" edge="1">
          <mxGeometry width="50" height="50" relative="1" as="geometry">
            <mxPoint x="520" y="540" as="sourcePoint" />
            <mxPoint x="570" y="490" as="targetPoint" />
          </mxGeometry>
        </mxCell>
        <mxCell id="dK_nRXZSWBPesYPL9nkP-125" value="" style="endArrow=classic;html=1;rounded=0;" parent="dK_nRXZSWBPesYPL9nkP-63" target="dK_nRXZSWBPesYPL9nkP-77" edge="1">
          <mxGeometry width="50" height="50" relative="1" as="geometry">
            <mxPoint x="610" y="510" as="sourcePoint" />
            <mxPoint x="320" y="380" as="targetPoint" />
          </mxGeometry>
        </mxCell>
        <mxCell id="dK_nRXZSWBPesYPL9nkP-126" value="" style="endArrow=classic;html=1;rounded=0;entryX=0.627;entryY=-0.027;entryDx=0;entryDy=0;entryPerimeter=0;" parent="dK_nRXZSWBPesYPL9nkP-63" target="dK_nRXZSWBPesYPL9nkP-106" edge="1">
          <mxGeometry width="50" height="50" relative="1" as="geometry">
            <mxPoint x="850" y="510" as="sourcePoint" />
            <mxPoint x="460" y="390" as="targetPoint" />
          </mxGeometry>
        </mxCell>
        <mxCell id="dK_nRXZSWBPesYPL9nkP-127" value="StationDataConverting" style="swimlane;fontStyle=2;align=center;verticalAlign=top;childLayout=stackLayout;horizontal=1;startSize=26;horizontalStack=0;resizeParent=1;resizeLast=0;collapsible=1;marginBottom=0;rounded=0;shadow=0;strokeWidth=1;" parent="dK_nRXZSWBPesYPL9nkP-63" vertex="1">
          <mxGeometry x="770" y="820" width="160" height="346" as="geometry">
            <mxRectangle x="230" y="140" width="160" height="26" as="alternateBounds" />
          </mxGeometry>
        </mxCell>
        <mxCell id="dK_nRXZSWBPesYPL9nkP-128" value="id" style="text;align=left;verticalAlign=top;spacingLeft=4;spacingRight=4;overflow=hidden;rotatable=0;points=[[0,0.5],[1,0.5]];portConstraint=eastwest;" parent="dK_nRXZSWBPesYPL9nkP-127" vertex="1">
          <mxGeometry y="26" width="160" height="26" as="geometry" />
        </mxCell>
        <mxCell id="dK_nRXZSWBPesYPL9nkP-129" value="StationName" style="text;align=left;verticalAlign=top;spacingLeft=4;spacingRight=4;overflow=hidden;rotatable=0;points=[[0,0.5],[1,0.5]];portConstraint=eastwest;rounded=0;shadow=0;html=0;" parent="dK_nRXZSWBPesYPL9nkP-127" vertex="1">
          <mxGeometry y="52" width="160" height="26" as="geometry" />
        </mxCell>
        <mxCell id="dK_nRXZSWBPesYPL9nkP-130" value="KmDistance" style="text;align=left;verticalAlign=top;spacingLeft=4;spacingRight=4;overflow=hidden;rotatable=0;points=[[0,0.5],[1,0.5]];portConstraint=eastwest;rounded=0;shadow=0;html=0;" parent="dK_nRXZSWBPesYPL9nkP-127" vertex="1">
          <mxGeometry y="78" width="160" height="26" as="geometry" />
        </mxCell>
        <mxCell id="dK_nRXZSWBPesYPL9nkP-131" value="" style="line;html=1;strokeWidth=1;align=left;verticalAlign=middle;spacingTop=-1;spacingLeft=3;spacingRight=3;rotatable=0;labelPosition=right;points=[];portConstraint=eastwest;" parent="dK_nRXZSWBPesYPL9nkP-127" vertex="1">
          <mxGeometry y="104" width="160" height="8" as="geometry" />
        </mxCell>
        <mxCell id="dK_nRXZSWBPesYPL9nkP-132" value="get " style="text;align=left;verticalAlign=top;spacingLeft=4;spacingRight=4;overflow=hidden;rotatable=0;points=[[0,0.5],[1,0.5]];portConstraint=eastwest;rounded=0;shadow=0;html=0;" parent="dK_nRXZSWBPesYPL9nkP-127" vertex="1">
          <mxGeometry y="112" width="160" height="26" as="geometry" />
        </mxCell>
        <mxCell id="dK_nRXZSWBPesYPL9nkP-133" value="set" style="text;align=left;verticalAlign=top;spacingLeft=4;spacingRight=4;overflow=hidden;rotatable=0;points=[[0,0.5],[1,0.5]];portConstraint=eastwest;rounded=0;shadow=0;html=0;" parent="dK_nRXZSWBPesYPL9nkP-127" vertex="1">
          <mxGeometry y="138" width="160" height="26" as="geometry" />
        </mxCell>
        <mxCell id="dK_nRXZSWBPesYPL9nkP-134" value="" style="endArrow=classic;html=1;rounded=0;entryX=0.554;entryY=-0.012;entryDx=0;entryDy=0;entryPerimeter=0;" parent="dK_nRXZSWBPesYPL9nkP-63" target="dK_nRXZSWBPesYPL9nkP-112" edge="1">
          <mxGeometry width="50" height="50" relative="1" as="geometry">
            <mxPoint x="400" y="750" as="sourcePoint" />
            <mxPoint x="270" y="750" as="targetPoint" />
          </mxGeometry>
        </mxCell>
        <mxCell id="dK_nRXZSWBPesYPL9nkP-135" value="" style="endArrow=classic;html=1;rounded=0;" parent="dK_nRXZSWBPesYPL9nkP-63" target="dK_nRXZSWBPesYPL9nkP-92" edge="1">
          <mxGeometry width="50" height="50" relative="1" as="geometry">
            <mxPoint x="610" y="750" as="sourcePoint" />
            <mxPoint x="680" y="750" as="targetPoint" />
          </mxGeometry>
        </mxCell>
        <mxCell id="dK_nRXZSWBPesYPL9nkP-136" value="" style="endArrow=classic;html=1;rounded=0;entryX=0.432;entryY=0.001;entryDx=0;entryDy=0;entryPerimeter=0;" parent="dK_nRXZSWBPesYPL9nkP-63" target="dK_nRXZSWBPesYPL9nkP-127" edge="1">
          <mxGeometry width="50" height="50" relative="1" as="geometry">
            <mxPoint x="840" y="750" as="sourcePoint" />
            <mxPoint x="970" y="750" as="targetPoint" />
          </mxGeometry>
        </mxCell>
        <mxCell id="dK_nRXZSWBPesYPL9nkP-137" style="edgeStyle=orthogonalEdgeStyle;rounded=0;orthogonalLoop=1;jettySize=auto;html=1;entryX=0.002;entryY=0.484;entryDx=0;entryDy=0;entryPerimeter=0;" parent="WIyWlLk6GJQsqaUBKTNV-1" source="dK_nRXZSWBPesYPL9nkP-64" target="dK_nRXZSWBPesYPL9nkP-1" edge="1">
          <mxGeometry relative="1" as="geometry" />
        </mxCell>
        <mxCell id="dK_nRXZSWBPesYPL9nkP-138" value="IStationDataTraffic" style="swimlane;fontStyle=0;align=center;verticalAlign=top;childLayout=stackLayout;horizontal=1;startSize=26;horizontalStack=0;resizeParent=1;resizeLast=0;collapsible=1;marginBottom=0;rounded=0;shadow=0;strokeWidth=1;" parent="WIyWlLk6GJQsqaUBKTNV-1" vertex="1">
          <mxGeometry x="430" y="-190" width="160" height="190" as="geometry">
            <mxRectangle x="230" y="140" width="160" height="26" as="alternateBounds" />
          </mxGeometry>
        </mxCell>
        <mxCell id="dK_nRXZSWBPesYPL9nkP-139" value="List&lt;Animals&gt; Animals" style="text;align=left;verticalAlign=top;spacingLeft=4;spacingRight=4;overflow=hidden;rotatable=0;points=[[0,0.5],[1,0.5]];portConstraint=eastwest;" parent="dK_nRXZSWBPesYPL9nkP-138" vertex="1">
          <mxGeometry y="26" width="160" height="26" as="geometry" />
        </mxCell>
        <mxCell id="dK_nRXZSWBPesYPL9nkP-140" value="" style="line;html=1;strokeWidth=1;align=left;verticalAlign=middle;spacingTop=-1;spacingLeft=3;spacingRight=3;rotatable=0;labelPosition=right;points=[];portConstraint=eastwest;" parent="dK_nRXZSWBPesYPL9nkP-138" vertex="1">
          <mxGeometry y="52" width="160" height="8" as="geometry" />
        </mxCell>
        <mxCell id="dK_nRXZSWBPesYPL9nkP-141" value="AddAnimals(): Void&#xa;&#xa;" style="text;align=left;verticalAlign=top;spacingLeft=4;spacingRight=4;overflow=hidden;rotatable=0;points=[[0,0.5],[1,0.5]];portConstraint=eastwest;" parent="dK_nRXZSWBPesYPL9nkP-138" vertex="1">
          <mxGeometry y="60" width="160" height="26" as="geometry" />
        </mxCell>
        <mxCell id="dK_nRXZSWBPesYPL9nkP-142" value="GetAllAnimals(): Void&#xa;&#xa;" style="text;align=left;verticalAlign=top;spacingLeft=4;spacingRight=4;overflow=hidden;rotatable=0;points=[[0,0.5],[1,0.5]];portConstraint=eastwest;" parent="dK_nRXZSWBPesYPL9nkP-138" vertex="1">
          <mxGeometry y="86" width="160" height="26" as="geometry" />
        </mxCell>
        <mxCell id="dK_nRXZSWBPesYPL9nkP-143" value="SavesChanges()" style="text;align=left;verticalAlign=top;spacingLeft=4;spacingRight=4;overflow=hidden;rotatable=0;points=[[0,0.5],[1,0.5]];portConstraint=eastwest;" parent="dK_nRXZSWBPesYPL9nkP-138" vertex="1">
          <mxGeometry y="112" width="160" height="26" as="geometry" />
        </mxCell>
        <mxCell id="dK_nRXZSWBPesYPL9nkP-144" value="" style="endArrow=none;html=1;rounded=0;entryX=0.496;entryY=1.199;entryDx=0;entryDy=0;entryPerimeter=0;exitX=0.393;exitY=0.583;exitDx=0;exitDy=0;exitPerimeter=0;" parent="WIyWlLk6GJQsqaUBKTNV-1" source="dK_nRXZSWBPesYPL9nkP-1" target="dK_nRXZSWBPesYPL9nkP-62" edge="1">
          <mxGeometry width="50" height="50" relative="1" as="geometry">
            <mxPoint x="250" y="530" as="sourcePoint" />
            <mxPoint x="300" y="480" as="targetPoint" />
          </mxGeometry>
        </mxCell>
      </root>
    </mxGraphModel>
  </diagram>
</mxfile>
